<svg viewBox="0 0 1024.0257 1089.841" xmlns="http://www.w3.org/2000/svg"><path d="M317.853 1027.42c0-88.158 48.454-129.657 112.197-177.487V619.285L11.444 805.26c0-160.974-54.785-149.18 75.384-230.97l1.285-.795V472.902h93.47v42.37l68.674-42.786V359.78h93.47v54.482l86.324-53.783V122.345c0-33.487 36.38-60.87 80.846-60.87h.02c44.466 0 80.844 27.44 80.844 60.87V360.48l87.252 54.35v-55.05h93.47v113.274l68.693 42.766v-42.917h93.45v101.14c129.64 80.544 80.108 64.82 80.108 231.217L591.76 619.04v229.8c67.824 45.278 112.178 79.975 112.178 178.585l-106.716.926c-24.416-19.2-41.367-33.75-54.37-43.823-9.826 3.213-20.635 4.99-31.936 4.99h-.02c-12.774 0-24.925-2.27-35.697-6.294-14.004 10.205-32.543 25.304-60.077 45.128l-97.267-.925z"/></svg>