<svg viewBox="0 0 72 56" xmlns="http://www.w3.org/2000/svg"><path d="m48.89 48.14h1.27a6 6 0 0 0 6-6v-36a6 6 0 0 0 -6-6h-28.32a6 6 0 0 0 -6 6v36a6 6 0 0 0 6 6h1.27l-8.56 7.66h5.45l2.74-2.45h26.57l2.74 2.45h5.4zm-.89-3.69a3 3 0 1 1 3-3 2.95 2.95 0 0 1 -3 3zm-18.72-42h13.43a1.65 1.65 0 0 1 0 3.3h-13.42a1.65 1.65 0 1 1 0-3.3zm-10.44 23.8v-15.1a3 3 0 0 1 3-3h28.32a3 3 0 0 1 3 3v15.1a3 3 0 0 1 -3 3h-28.32a3 3 0 0 1 -3-3zm2.16 15.25a3 3 0 1 1 2.95 3 2.95 2.95 0 0 1 -2.95-3zm5.67 8.25 1.78-1.61h15.13l1.71 1.61z"/></svg>